<?xml version="1.0" encoding="UTF-8" standalone="no"?>
<!DOCTYPE svg PUBLIC "-//W3C//DTD SVG 1.1//EN"
 "http://www.w3.org/Graphics/SVG/1.1/DTD/svg11.dtd">
<!-- Generated by graphviz version 2.42.3 (20191010.1750)
 -->
<!-- Title: snakemake_dag Pages: 1 -->
<svg width="396pt" height="476pt"
 viewBox="0.00 0.00 395.50 476.00" xmlns="http://www.w3.org/2000/svg" xmlns:xlink="http://www.w3.org/1999/xlink">
<g id="graph0" class="graph" transform="scale(1 1) rotate(0) translate(4 472)">
<title>snakemake_dag</title>
<polygon fill="white" stroke="transparent" points="-4,4 -4,-472 391.5,-472 391.5,4 -4,4"/>
<!-- 0 -->
<g id="node1" class="node">
<title>0</title>
<path fill="none" stroke="#d8a456" stroke-width="2" d="M220,-36C220,-36 190,-36 190,-36 184,-36 178,-30 178,-24 178,-24 178,-12 178,-12 178,-6 184,0 190,0 190,0 220,0 220,0 226,0 232,-6 232,-12 232,-12 232,-24 232,-24 232,-30 226,-36 220,-36"/>
<text text-anchor="middle" x="205" y="-15.5" font-family="sans" font-size="10.00">all</text>
</g>
<!-- 1 -->
<g id="node2" class="node">
<title>1</title>
<path fill="none" stroke="#d8c356" stroke-width="2" d="M100,-108C100,-108 12,-108 12,-108 6,-108 0,-102 0,-96 0,-96 0,-84 0,-84 0,-78 6,-72 12,-72 12,-72 100,-72 100,-72 106,-72 112,-78 112,-84 112,-84 112,-96 112,-96 112,-102 106,-108 100,-108"/>
<text text-anchor="middle" x="56" y="-87.5" font-family="sans" font-size="10.00">get_sample_names</text>
</g>
<!-- 1&#45;&gt;0 -->
<g id="edge2" class="edge">
<title>1&#45;&gt;0</title>
<path fill="none" stroke="grey" stroke-width="2" d="M92.45,-71.88C115.62,-60.99 145.5,-46.95 168.65,-36.07"/>
<polygon fill="grey" stroke="grey" stroke-width="2" points="170.24,-39.2 177.81,-31.78 167.27,-32.86 170.24,-39.2"/>
</g>
<!-- 2 -->
<g id="node3" class="node">
<title>2</title>
<path fill="none" stroke="#d85656" stroke-width="2" d="M183,-252C183,-252 153,-252 153,-252 147,-252 141,-246 141,-240 141,-240 141,-228 141,-228 141,-222 147,-216 153,-216 153,-216 183,-216 183,-216 189,-216 195,-222 195,-228 195,-228 195,-240 195,-240 195,-246 189,-252 183,-252"/>
<text text-anchor="middle" x="168" y="-231.5" font-family="sans" font-size="10.00">get_gff</text>
</g>
<!-- 2&#45;&gt;0 -->
<g id="edge1" class="edge">
<title>2&#45;&gt;0</title>
<path fill="none" stroke="grey" stroke-width="2" d="M164.35,-215.91C162.32,-205.57 160.02,-192.09 159,-180 157.66,-164.06 156.19,-159.75 159,-144 165.3,-108.63 180.9,-70.15 192.19,-45.36"/>
<polygon fill="grey" stroke="grey" stroke-width="2" points="195.38,-46.8 196.42,-36.25 189.03,-43.84 195.38,-46.8"/>
</g>
<!-- 3 -->
<g id="node4" class="node">
<title>3</title>
<path fill="none" stroke="#56d87b" stroke-width="2" d="M210,-180C210,-180 180,-180 180,-180 174,-180 168,-174 168,-168 168,-168 168,-156 168,-156 168,-150 174,-144 180,-144 180,-144 210,-144 210,-144 216,-144 222,-150 222,-156 222,-156 222,-168 222,-168 222,-174 216,-180 210,-180"/>
<text text-anchor="middle" x="195" y="-159.5" font-family="sans" font-size="10.00">roary</text>
</g>
<!-- 2&#45;&gt;3 -->
<g id="edge7" class="edge">
<title>2&#45;&gt;3</title>
<path fill="none" stroke="grey" stroke-width="2" d="M174.67,-215.7C177.71,-207.81 181.38,-198.3 184.76,-189.55"/>
<polygon fill="grey" stroke="grey" stroke-width="2" points="188.07,-190.69 188.4,-180.1 181.54,-188.17 188.07,-190.69"/>
</g>
<!-- 3&#45;&gt;0 -->
<g id="edge4" class="edge">
<title>3&#45;&gt;0</title>
<path fill="none" stroke="grey" stroke-width="2" d="M194.74,-143.9C194.62,-125.96 194.85,-96.94 197,-72 197.73,-63.53 198.96,-54.35 200.24,-46.05"/>
<polygon fill="grey" stroke="grey" stroke-width="2" points="203.7,-46.55 201.85,-36.12 196.79,-45.43 203.7,-46.55"/>
</g>
<!-- 4 -->
<g id="node5" class="node">
<title>4</title>
<path fill="none" stroke="#56c9d8" stroke-width="2" d="M248,-108C248,-108 218,-108 218,-108 212,-108 206,-102 206,-96 206,-96 206,-84 206,-84 206,-78 212,-72 218,-72 218,-72 248,-72 248,-72 254,-72 260,-78 260,-84 260,-84 260,-96 260,-96 260,-102 254,-108 248,-108"/>
<text text-anchor="middle" x="233" y="-87.5" font-family="sans" font-size="10.00">iqtree</text>
</g>
<!-- 3&#45;&gt;4 -->
<g id="edge8" class="edge">
<title>3&#45;&gt;4</title>
<path fill="none" stroke="grey" stroke-width="2" d="M204.39,-143.7C208.76,-135.64 214.06,-125.89 218.9,-116.98"/>
<polygon fill="grey" stroke="grey" stroke-width="2" points="222.02,-118.56 223.71,-108.1 215.87,-115.22 222.02,-118.56"/>
</g>
<!-- 4&#45;&gt;0 -->
<g id="edge5" class="edge">
<title>4&#45;&gt;0</title>
<path fill="none" stroke="grey" stroke-width="2" d="M226.08,-71.7C222.93,-63.81 219.12,-54.3 215.62,-45.55"/>
<polygon fill="grey" stroke="grey" stroke-width="2" points="218.81,-44.09 211.84,-36.1 212.31,-46.69 218.81,-44.09"/>
</g>
<!-- 5 -->
<g id="node6" class="node">
<title>5</title>
<path fill="none" stroke="#56d8a2" stroke-width="2" d="M357.5,-324C357.5,-324 274.5,-324 274.5,-324 268.5,-324 262.5,-318 262.5,-312 262.5,-312 262.5,-300 262.5,-300 262.5,-294 268.5,-288 274.5,-288 274.5,-288 357.5,-288 357.5,-288 363.5,-288 369.5,-294 369.5,-300 369.5,-300 369.5,-312 369.5,-312 369.5,-318 363.5,-324 357.5,-324"/>
<text text-anchor="middle" x="316" y="-303.5" font-family="sans" font-size="10.00">clean_snippy_core</text>
</g>
<!-- 5&#45;&gt;0 -->
<g id="edge3" class="edge">
<title>5&#45;&gt;0</title>
<path fill="none" stroke="grey" stroke-width="2" d="M314.03,-287.72C308.37,-240.26 291.08,-108.92 269,-72 261.86,-60.06 251.02,-49.6 240.28,-41.19"/>
<polygon fill="grey" stroke="grey" stroke-width="2" points="242.27,-38.31 232.15,-35.17 238.1,-43.94 242.27,-38.31"/>
</g>
<!-- 10 -->
<g id="node11" class="node">
<title>10</title>
<path fill="none" stroke="#d87d56" stroke-width="2" d="M363.5,-252C363.5,-252 332.5,-252 332.5,-252 326.5,-252 320.5,-246 320.5,-240 320.5,-240 320.5,-228 320.5,-228 320.5,-222 326.5,-216 332.5,-216 332.5,-216 363.5,-216 363.5,-216 369.5,-216 375.5,-222 375.5,-228 375.5,-228 375.5,-240 375.5,-240 375.5,-246 369.5,-252 363.5,-252"/>
<text text-anchor="middle" x="348" y="-231.5" font-family="sans" font-size="10.00">gubbins</text>
</g>
<!-- 5&#45;&gt;10 -->
<g id="edge13" class="edge">
<title>5&#45;&gt;10</title>
<path fill="none" stroke="grey" stroke-width="2" d="M323.91,-287.7C327.55,-279.73 331.95,-270.1 335.99,-261.26"/>
<polygon fill="grey" stroke="grey" stroke-width="2" points="339.21,-262.65 340.18,-252.1 332.84,-259.74 339.21,-262.65"/>
</g>
<!-- 6 -->
<g id="node7" class="node">
<title>6</title>
<path fill="none" stroke="#56d8c9" stroke-width="2" d="M341.5,-396C341.5,-396 290.5,-396 290.5,-396 284.5,-396 278.5,-390 278.5,-384 278.5,-384 278.5,-372 278.5,-372 278.5,-366 284.5,-360 290.5,-360 290.5,-360 341.5,-360 341.5,-360 347.5,-360 353.5,-366 353.5,-372 353.5,-372 353.5,-384 353.5,-384 353.5,-390 347.5,-396 341.5,-396"/>
<text text-anchor="middle" x="316" y="-375.5" font-family="sans" font-size="10.00">snippy_core</text>
</g>
<!-- 6&#45;&gt;5 -->
<g id="edge9" class="edge">
<title>6&#45;&gt;5</title>
<path fill="none" stroke="grey" stroke-width="2" d="M316,-359.7C316,-351.98 316,-342.71 316,-334.11"/>
<polygon fill="grey" stroke="grey" stroke-width="2" points="319.5,-334.1 316,-324.1 312.5,-334.1 319.5,-334.1"/>
</g>
<!-- 7 -->
<g id="node8" class="node">
<title>7</title>
<path fill="none" stroke="#59d856" stroke-width="2" d="M344,-468C344,-468 288,-468 288,-468 282,-468 276,-462 276,-456 276,-456 276,-444 276,-444 276,-438 282,-432 288,-432 288,-432 344,-432 344,-432 350,-432 356,-438 356,-444 356,-444 356,-456 356,-456 356,-462 350,-468 344,-468"/>
<text text-anchor="middle" x="316" y="-447.5" font-family="sans" font-size="10.00">snippy_multi</text>
</g>
<!-- 7&#45;&gt;6 -->
<g id="edge10" class="edge">
<title>7&#45;&gt;6</title>
<path fill="none" stroke="grey" stroke-width="2" d="M316,-431.7C316,-423.98 316,-414.71 316,-406.11"/>
<polygon fill="grey" stroke="grey" stroke-width="2" points="319.5,-406.1 316,-396.1 312.5,-406.1 319.5,-406.1"/>
</g>
<!-- 8 -->
<g id="node9" class="node">
<title>8</title>
<path fill="none" stroke="#567bd8" stroke-width="2" d="M372.5,-108C372.5,-108 329.5,-108 329.5,-108 323.5,-108 317.5,-102 317.5,-96 317.5,-96 317.5,-84 317.5,-84 317.5,-78 323.5,-72 329.5,-72 329.5,-72 372.5,-72 372.5,-72 378.5,-72 384.5,-78 384.5,-84 384.5,-84 384.5,-96 384.5,-96 384.5,-102 378.5,-108 372.5,-108"/>
<text text-anchor="middle" x="351" y="-87.5" font-family="sans" font-size="10.00">SNPS_tree</text>
</g>
<!-- 8&#45;&gt;0 -->
<g id="edge6" class="edge">
<title>8&#45;&gt;0</title>
<path fill="none" stroke="grey" stroke-width="2" d="M317.14,-72.76C294.48,-61.9 264.69,-47.62 241.5,-36.5"/>
<polygon fill="grey" stroke="grey" stroke-width="2" points="242.86,-33.27 232.33,-32.1 239.84,-39.58 242.86,-33.27"/>
</g>
<!-- 9 -->
<g id="node10" class="node">
<title>9</title>
<path fill="none" stroke="#78d856" stroke-width="2" d="M375.5,-180C375.5,-180 328.5,-180 328.5,-180 322.5,-180 316.5,-174 316.5,-168 316.5,-168 316.5,-156 316.5,-156 316.5,-150 322.5,-144 328.5,-144 328.5,-144 375.5,-144 375.5,-144 381.5,-144 387.5,-150 387.5,-156 387.5,-156 387.5,-168 387.5,-168 387.5,-174 381.5,-180 375.5,-180"/>
<text text-anchor="middle" x="352" y="-159.5" font-family="sans" font-size="10.00">clean_snps</text>
</g>
<!-- 9&#45;&gt;8 -->
<g id="edge11" class="edge">
<title>9&#45;&gt;8</title>
<path fill="none" stroke="grey" stroke-width="2" d="M351.75,-143.7C351.64,-135.98 351.51,-126.71 351.39,-118.11"/>
<polygon fill="grey" stroke="grey" stroke-width="2" points="354.89,-118.05 351.24,-108.1 347.89,-118.15 354.89,-118.05"/>
</g>
<!-- 10&#45;&gt;9 -->
<g id="edge12" class="edge">
<title>10&#45;&gt;9</title>
<path fill="none" stroke="grey" stroke-width="2" d="M348.99,-215.7C349.43,-207.98 349.96,-198.71 350.45,-190.11"/>
<polygon fill="grey" stroke="grey" stroke-width="2" points="353.95,-190.29 351.02,-180.1 346.96,-189.89 353.95,-190.29"/>
</g>
</g>
</svg>
